<svg width="512" height="512" viewBox="0 0 512 512" fill="none" xmlns="http://www.w3.org/2000/svg">
<g clip-path="url(#clip0_334_392)">
<path d="M458.105 0H53.8947C23.9532 0 0 23.9532 0 53.8947V458.105C0 488.047 23.9532 512 53.8947 512H458.105C487.448 512 512 488.047 512 458.105V53.8947C512 23.9532 488.047 0 458.105 0ZM255.102 311.991C271.869 311.991 289.834 305.404 307.2 289.834L331.153 317.38C306.002 337.74 277.258 349.118 248.515 349.118C191.626 349.118 155.696 311.392 164.08 258.096C172.463 204.8 220.968 167.074 277.857 167.074C305.404 167.074 331.153 177.853 349.118 197.614L315.584 225.16C306.002 212.585 289.834 204.201 271.869 204.201C237.736 204.201 211.387 226.358 205.998 258.096C201.207 289.834 220.37 311.991 255.102 311.991Z" fill="#E5422B"/>
</g>
<defs>
<clipPath id="clip0_334_392">
<rect width="512" height="512" fill="white"/>
</clipPath>
</defs>
</svg>
