<svg width="16" height="16" viewBox="0 0 16 16" fill="none" xmlns="http://www.w3.org/2000/svg">
<g clip-path="url(#clip0_1129_208)">
<path fill-rule="evenodd" clip-rule="evenodd" d="M7.72176 0.89502C5.92253 0.895953 4.18231 1.5332 2.81225 2.69282C1.44219 3.85244 0.531646 5.45881 0.24342 7.22469C-0.044806 8.99057 0.308082 10.8008 1.23899 12.3317C2.1699 13.8627 3.61813 15.0144 5.32471 15.5811C5.7012 15.651 5.84302 15.4176 5.84302 15.2192C5.84302 15.0208 5.83549 14.4455 5.83298 13.8166C3.72458 14.2721 3.27906 12.9269 3.27906 12.9269C2.93519 12.0534 2.43821 11.8238 2.43821 11.8238C1.75047 11.3571 2.48967 11.3658 2.48967 11.3658C3.25145 11.4195 3.6518 12.1432 3.6518 12.1432C4.32699 13.295 5.4251 12.9618 5.85682 12.7672C5.92459 12.2792 6.12163 11.9473 6.33875 11.7589C4.65454 11.5692 2.88499 10.9228 2.88499 8.03527C2.87455 7.2864 3.15403 6.5622 3.6656 6.01249C3.58779 5.82282 3.328 5.05663 3.73964 4.01592C3.73964 4.01592 4.37593 3.81376 5.8242 4.78834C7.06643 4.45056 8.37708 4.45056 9.61931 4.78834C11.0663 3.81376 11.7013 4.01592 11.7013 4.01592C12.1142 5.05414 11.8545 5.82032 11.7767 6.01249C12.2898 6.56229 12.5699 7.28775 12.5585 8.03777C12.5585 10.9316 10.7852 11.5692 9.09848 11.7551C9.36956 11.9897 9.61178 12.4477 9.61178 13.1515C9.61178 14.1598 9.603 14.9709 9.603 15.2192C9.603 15.4201 9.73979 15.6547 10.1238 15.5811C11.8306 15.0144 13.279 13.8624 14.2099 12.3312C15.1408 10.8 15.4935 8.98951 15.2049 7.22346C14.9163 5.45741 14.0053 3.85103 12.6348 2.69161C11.2643 1.53219 9.5237 0.895361 7.72426 0.89502H7.72176Z" fill="black"/>
<path d="M5.21274 13.1953C5.21274 13.2564 5.14246 13.3088 5.0521 13.3101C4.96174 13.3113 4.8877 13.2614 4.8877 13.2003C4.8877 13.1391 4.95797 13.0867 5.04833 13.0855C5.13869 13.0842 5.21274 13.1329 5.21274 13.1953Z" fill="black"/>
<path d="M5.7906 13.0988C5.8019 13.16 5.73915 13.2236 5.64879 13.2386C5.55843 13.2536 5.47936 13.2174 5.46807 13.1575C5.45677 13.0976 5.52203 13.0327 5.60988 13.0165C5.69773 13.0003 5.77931 13.0377 5.7906 13.0988Z" fill="black"/>
<path d="M4.5932 13.1527C4.57438 13.2114 4.48904 13.2376 4.4037 13.2126C4.31836 13.1877 4.26188 13.1178 4.2782 13.0579C4.29451 12.998 4.38111 12.9705 4.4677 12.998C4.5543 13.0254 4.60952 13.0916 4.5932 13.1527Z" fill="black"/>
<path d="M4.02464 12.9079C3.98323 12.9541 3.89914 12.9416 3.83012 12.8792C3.7611 12.8168 3.74478 12.732 3.78619 12.6871C3.82761 12.6421 3.91169 12.6546 3.98323 12.7158C4.05476 12.7769 4.06857 12.863 4.02464 12.9079V12.9079Z" fill="black"/>
<path d="M3.61897 12.4887C3.57253 12.5212 3.49346 12.4887 3.44954 12.4238C3.43739 12.4122 3.42774 12.3982 3.42114 12.3828C3.41454 12.3674 3.41113 12.3508 3.41113 12.334C3.41113 12.3172 3.41454 12.3006 3.42114 12.2852C3.42774 12.2697 3.43739 12.2558 3.44954 12.2441C3.49597 12.213 3.57504 12.2441 3.61897 12.3078C3.66289 12.3714 3.66415 12.4563 3.61897 12.4887V12.4887Z" fill="black"/>
<path d="M3.31994 12.0554C3.29395 12.0685 3.26421 12.0721 3.23583 12.0657C3.20744 12.0593 3.18216 12.0434 3.16432 12.0205C3.11538 11.9681 3.10533 11.8957 3.14298 11.8633C3.18063 11.8308 3.24841 11.8458 3.29735 11.8982C3.34629 11.9506 3.35759 12.023 3.31994 12.0554Z" fill="black"/>
<path d="M3.01318 11.7151C2.99687 11.7525 2.93663 11.7637 2.88769 11.7375C2.83874 11.7113 2.80235 11.6627 2.81992 11.624C2.83749 11.5853 2.89647 11.5753 2.94542 11.6015C2.99436 11.6277 3.03201 11.6776 3.01318 11.7151Z" fill="black"/>
</g>
<defs>
<clipPath id="clip0_1129_208">
<rect width="15.1579" height="15.1579" fill="white" transform="translate(0.142578 0.579102)"/>
</clipPath>
</defs>
</svg>
