<svg width="33" height="33" viewBox="0 0 33 33" fill="none" xmlns="http://www.w3.org/2000/svg">
<g clip-path="url(#clip0_1213_586)">
<path d="M16.5001 31.5333C24.8027 31.5333 31.5333 24.8027 31.5333 16.5001C31.5333 8.19742 24.8027 1.4668 16.5001 1.4668C8.19742 1.4668 1.4668 8.19742 1.4668 16.5001C1.4668 24.8027 8.19742 31.5333 16.5001 31.5333Z" stroke="#050505" stroke-width="2.5"/>
<path d="M31.5333 16.5011C31.5333 16.6185 31.4634 16.9637 30.7955 17.49C30.1442 18.0032 29.1111 18.5296 27.7034 18.9988C24.9038 19.932 20.9426 20.5344 16.5001 20.5344C12.0575 20.5344 8.0964 19.932 5.29666 18.9988C3.8891 18.5296 2.85585 18.0032 2.2046 17.49C1.53682 16.9637 1.4668 16.6185 1.4668 16.5011C1.4668 16.3837 1.53682 16.0385 2.2046 15.5122C2.85585 14.999 3.8891 14.4726 5.29666 14.0034C8.0964 13.0702 12.0575 12.4678 16.5001 12.4678C20.9426 12.4678 24.9038 13.0702 27.7034 14.0034C29.1111 14.4726 30.1442 14.999 30.7955 15.5122C31.4634 16.0385 31.5333 16.3837 31.5333 16.5011Z" stroke="#050505" stroke-width="2.5"/>
<path d="M16.5007 1.4668C16.8077 1.4668 17.2687 1.62459 17.8576 2.27833C18.446 2.93173 19.0432 3.95972 19.5747 5.35498C20.6339 8.13532 21.3196 12.0753 21.3196 16.5001C21.3196 20.9249 20.6339 24.8649 19.5747 27.6451C19.0432 29.0404 18.446 30.0684 17.8576 30.7218C17.2687 31.3756 16.8077 31.5333 16.5007 31.5333C16.1937 31.5333 15.7326 31.3756 15.1438 30.7218C14.5553 30.0684 13.9581 29.0404 13.4266 27.6451C12.3674 24.8649 11.6816 20.9249 11.6816 16.5001C11.6816 12.0753 12.3674 8.13532 13.4266 5.35498C13.9581 3.95972 14.5553 2.93173 15.1438 2.27833C15.7326 1.62459 16.1937 1.4668 16.5007 1.4668Z" stroke="#050505" stroke-width="2.5"/>
</g>
<defs>
<clipPath id="clip0_1213_586">
<rect width="33" height="33" fill="white"/>
</clipPath>
</defs>
</svg>
