<svg width="456" height="512" viewBox="0 0 456 512" fill="none" xmlns="http://www.w3.org/2000/svg">
<path fill-rule="evenodd" clip-rule="evenodd" d="M271.582 58.6743L376.861 119.459C379.826 116.319 383.288 113.546 387.216 111.265C409.051 98.713 436.9 106.165 449.582 128C462.134 149.835 454.681 177.683 432.847 190.366C428.948 192.607 424.854 194.21 420.687 195.207V316.824C424.809 317.824 428.859 319.417 432.716 321.634C454.681 334.317 462.134 362.165 449.451 384C436.9 405.835 408.92 413.287 387.086 400.735C382.739 398.237 378.962 395.126 375.799 391.574L271.162 451.988C272.658 456.508 273.468 461.343 273.468 466.37C273.468 491.473 253.071 512 227.837 512C202.604 512 182.207 491.604 182.207 466.37C182.207 461.884 182.852 457.552 184.053 453.459L78.8024 392.691C75.8696 395.77 72.4548 398.49 68.5893 400.735C46.624 413.287 18.7752 405.835 6.22358 384C-6.328 362.165 1.1245 334.317 22.959 321.634C26.8196 319.415 30.8681 317.821 34.9876 316.822V195.207C30.8205 194.21 26.7264 192.607 22.8283 190.366C0.993753 177.814 -6.45875 149.835 6.09284 128C18.6444 106.165 46.624 98.713 68.4585 111.265C72.3653 113.534 75.8117 116.289 78.7654 119.408L184.073 58.6067C182.859 54.4949 182.207 50.1398 182.207 45.6302C182.207 20.3963 202.604 0 227.837 0C253.071 0 273.468 20.3963 273.468 45.6302C273.468 50.1645 272.809 54.5426 271.582 58.6743ZM260.613 77.4022L366.143 138.332C362.881 149.788 364.078 162.492 370.481 173.63C376.905 184.805 387.37 192.213 398.984 195.099V316.868C398.392 317.014 397.803 317.171 397.217 317.339L259.388 78.6193C259.804 78.2213 260.213 77.8155 260.613 77.4022ZM196.316 78.6469L58.489 317.363C57.8931 317.19 57.2938 317.029 56.6914 316.88V195.099C68.3053 192.213 78.7702 184.805 85.194 173.63C91.6095 162.47 92.7988 149.738 89.5126 138.264L195.012 77.3514C195.438 77.7919 195.873 78.2238 196.316 78.6469ZM240.587 89.4614L378.383 328.123C375.299 331.063 372.581 334.49 370.35 338.37C368.133 342.227 366.54 346.276 365.54 350.398H90.1374C89.1378 346.279 87.5439 342.23 85.3247 338.37C83.0853 334.514 80.3731 331.107 77.3046 328.18L215.126 89.4725C219.16 90.6367 223.425 91.2605 227.837 91.2605C232.264 91.2605 236.542 90.6328 240.587 89.4614ZM261.582 435.629L366.427 375.095C366.112 374.107 365.831 373.109 365.584 372.102H90.079C89.9329 372.694 89.7751 373.282 89.6056 373.868L194.964 434.698C203.26 426.089 214.914 420.74 227.837 420.74C241.22 420.74 253.242 426.476 261.582 435.629Z" fill="#E535AB"/>
</svg>
