<svg width="512" height="512" viewBox="0 0 512 512" fill="none" xmlns="http://www.w3.org/2000/svg">
<g clip-path="url(#clip0_332_271)">
<path d="M119.338 0H392.662C434.157 0 449.208 4.32174 464.377 12.4346C479.548 20.5475 491.452 32.4538 499.565 47.623C507.681 62.7945 512 77.8403 512 119.338V392.662C512 434.157 507.681 449.206 499.565 464.377C491.452 479.546 479.548 491.452 464.377 499.565C449.208 507.678 434.16 512 392.662 512H119.338C77.8426 512 62.7945 507.678 47.623 499.565C32.4538 491.452 20.5475 479.546 12.4346 464.377C4.32174 449.206 0 434.16 0 392.662V119.338C0 77.8426 4.32174 62.7945 12.4346 47.623C20.5475 32.4538 32.4538 20.5475 47.623 12.4346C62.7945 4.32174 77.8403 0 119.338 0ZM146.711 132.096V397.964H205.172V312.32L238.685 278.435L318.743 397.964H392.099L278.156 237.103L382.045 132.096H309.062L205.172 242.316V132.096H146.711Z" fill="url(#paint0_linear_332_271)"/>
<path d="M146.711 132.096V397.964H205.172V312.32L238.685 278.435L318.743 397.964H392.099L278.156 237.103L382.045 132.096H309.062L205.172 242.316V132.096H146.711Z" fill="white"/>
</g>
<defs>
<linearGradient id="paint0_linear_332_271" x1="0" y1="0" x2="256" y2="368.236" gradientUnits="userSpaceOnUse">
<stop stop-color="#5AE8FA"/>
<stop offset="1" stop-color="#2684FF"/>
</linearGradient>
<clipPath id="clip0_332_271">
<rect width="512" height="512" fill="white"/>
</clipPath>
</defs>
</svg>
