<svg width="14" height="14" viewBox="0 0 14 14" fill="none" xmlns="http://www.w3.org/2000/svg">
<g clip-path="url(#clip0_1129_213)">
<path d="M12.7417 0.263184H1.25731C0.993524 0.263184 0.740539 0.367974 0.554012 0.554501C0.367485 0.741028 0.262695 0.994012 0.262695 1.2578V12.7422C0.262695 13.006 0.367485 13.259 0.554012 13.4455C0.740539 13.6321 0.993524 13.7368 1.25731 13.7368H12.7417C13.0055 13.7368 13.2585 13.6321 13.445 13.4455C13.6316 13.259 13.7364 13.006 13.7364 12.7422V1.2578C13.7364 0.994012 13.6316 0.741028 13.445 0.554501C13.2585 0.367974 13.0055 0.263184 12.7417 0.263184ZM4.27859 11.7411H2.25287V5.30645H4.27859V11.7411ZM3.26433 4.41475C3.03454 4.41346 2.81029 4.34413 2.61987 4.21551C2.42946 4.08688 2.28141 3.90474 2.19441 3.69205C2.10742 3.47937 2.08537 3.24569 2.13106 3.02049C2.17675 2.79529 2.28812 2.58867 2.45113 2.42671C2.61413 2.26474 2.82146 2.1547 3.04695 2.11046C3.27244 2.06621 3.50598 2.08976 3.7181 2.17812C3.93022 2.26648 4.11141 2.41569 4.23881 2.60693C4.3662 2.79817 4.4341 3.02286 4.43391 3.25265C4.43608 3.40649 4.40725 3.5592 4.34915 3.70166C4.29104 3.84413 4.20485 3.97344 4.09571 4.08188C3.98657 4.19032 3.85671 4.27568 3.71387 4.33287C3.57104 4.39006 3.41815 4.41791 3.26433 4.41475ZM11.7452 11.7467H9.72045V8.23135C9.72045 7.19463 9.27975 6.87463 8.71087 6.87463C8.11017 6.87463 7.52069 7.3275 7.52069 8.25755V11.7467H5.49496V5.31113H7.44303V6.20282H7.46923C7.66479 5.80703 8.3497 5.13054 9.39484 5.13054C10.5251 5.13054 11.7462 5.80142 11.7462 7.76633L11.7452 11.7467Z" fill="black"/>
</g>
<defs>
<clipPath id="clip0_1129_213">
<rect width="13.4737" height="13.4737" fill="white" transform="translate(0.262695 0.263184)"/>
</clipPath>
</defs>
</svg>
