<svg width="58" height="58" viewBox="0 0 58 58" fill="none" xmlns="http://www.w3.org/2000/svg">
<g clip-path="url(#clip0_1210_574)">
<g opacity="0.9">
<path d="M9 10H47V47H9V10Z" fill="#DE6B26"/>
<path d="M28.6 0C22.9435 0 17.414 1.67736 12.7107 4.81997C8.00746 7.96258 4.34172 12.4293 2.17706 17.6553C0.0123918 22.8812 -0.553983 28.6317 0.549554 34.1796C1.65309 39.7274 4.37698 44.8235 8.37676 48.8233C12.3765 52.823 17.4726 55.5469 23.0204 56.6505C28.5683 57.754 34.3188 57.1876 39.5448 55.023C44.7707 52.8583 49.2374 49.1926 52.38 44.4893C55.5227 39.7861 57.2 34.2565 57.2 28.6C57.2 21.0148 54.1868 13.7403 48.8233 8.37675C43.4597 3.01321 36.1852 0 28.6 0ZM22.9 26.6H13.6V12.8H16.3V24.1H22.9V26.6ZM26.4 36.1H23.5L30.4 22.3H33.2L26.4 36.1ZM43.6 35.8H39.9V44.4H37.3V35.8H33.7V33.4H43.6V35.8Z" fill="#EFD04B"/>
</g>
</g>
<defs>
<clipPath id="clip0_1210_574">
<rect width="57.2" height="57.2" fill="white"/>
</clipPath>
</defs>
</svg>
