<svg width="57" height="113" viewBox="0 0 57 113" fill="none" xmlns="http://www.w3.org/2000/svg">
<path d="M56.3193 0.199997L56.3193 10.2751L-4.40398e-07 10.2751L0 0.199994L56.3193 0.199997Z" fill="#050505"/>
<path fill-rule="evenodd" clip-rule="evenodd" d="M43.4787 66.0914C40.5282 71.4925 34.7745 75.1589 28.1599 75.1589C21.5453 75.1589 15.7916 71.4925 12.841 66.0914H1.24529C4.78955 77.5276 15.4989 85.8385 28.1599 85.8385C34.7381 85.8385 40.7895 83.595 45.5829 79.8352L45.5829 112.84H56.32L56.32 29.821H45.5829V35.8242C40.7895 32.0644 34.7381 29.8208 28.1599 29.8208C21.5818 29.8208 15.5306 32.0643 10.7373 35.8238V29.8208H0.000228882L0.000228882 46.5457H14.9368C18.132 42.8448 22.8707 40.5005 28.1599 40.5005C33.4491 40.5005 38.1878 42.8448 41.383 46.5457H56.3193V66.0914H43.4787Z" fill="#050505"/>
</svg>
