<svg width="16" height="16" viewBox="0 0 16 16" fill="none" xmlns="http://www.w3.org/2000/svg">
<g clip-path="url(#clip0_1191_359)">
<path d="M13.1552 5.48898C12.9892 5.43185 12.8172 5.37779 12.6402 5.32667C12.6693 5.20788 12.696 5.09063 12.7197 4.97537C13.1096 3.08281 12.8547 1.55814 11.9842 1.05616C11.1495 0.574819 9.78446 1.07669 8.40581 2.27649C8.27324 2.39186 8.14029 2.51401 8.00741 2.64202C7.91886 2.55733 7.83046 2.47547 7.74229 2.39718C6.29742 1.11428 4.84917 0.573651 3.97954 1.07709C3.14565 1.55982 2.8987 2.99315 3.24966 4.78675C3.28355 4.95999 3.32316 5.13691 3.36796 5.31679C3.16299 5.37497 2.96512 5.437 2.77578 5.50299C1.08183 6.09357 0 7.01917 0 7.97925C0 8.97083 1.16135 9.9654 2.92573 10.5685C3.06497 10.6161 3.20944 10.661 3.35834 10.7038C3.31001 10.8983 3.26797 11.089 3.23268 11.2749C2.89805 13.0374 3.15938 14.4368 3.99104 14.9165C4.85008 15.4119 6.29178 14.9027 7.69564 13.6756C7.80659 13.5786 7.91795 13.4757 8.0295 13.3679C8.1741 13.5071 8.31846 13.6389 8.46206 13.7625C9.82185 14.9326 11.1649 15.4052 11.9958 14.9241C12.854 14.4273 13.1329 12.924 12.7708 11.0949C12.7431 10.9552 12.7109 10.8125 12.6748 10.6672C12.776 10.6373 12.8754 10.6064 12.9723 10.5743C14.8066 9.96654 16 8.98407 16 7.97925C16 7.01569 14.8833 6.08386 13.1552 5.48898ZM12.7574 9.92547C12.6699 9.95444 12.5801 9.98243 12.4886 10.0096C12.2862 9.36852 12.0129 8.68686 11.6784 7.98258C11.9976 7.29508 12.2603 6.62213 12.4571 5.98524C12.6208 6.0326 12.7796 6.08255 12.9327 6.13527C14.4133 6.64497 15.3165 7.39858 15.3165 7.97925C15.3165 8.59777 14.3411 9.4007 12.7574 9.92547ZM12.1002 11.2276C12.2603 12.0364 12.2832 12.7677 12.1772 13.3393C12.0819 13.853 11.8902 14.1954 11.6533 14.3326C11.149 14.6245 10.0707 14.2451 8.90782 13.2444C8.77451 13.1296 8.64023 13.0072 8.50552 12.8775C8.95635 12.3844 9.40693 11.8112 9.84669 11.1746C10.6202 11.106 11.3509 10.9938 12.0136 10.8406C12.0463 10.9722 12.0753 11.1014 12.1002 11.2276ZM5.45476 14.2822C4.96212 14.4562 4.56975 14.4611 4.33257 14.3244C3.82788 14.0333 3.61807 12.9096 3.90427 11.4024C3.93705 11.2298 3.97606 11.0524 4.02103 10.8712C4.67647 11.0161 5.40187 11.1204 6.17721 11.1833C6.61993 11.8062 7.08352 12.3788 7.5507 12.8802C7.44863 12.9787 7.34696 13.0725 7.24586 13.1609C6.62508 13.7035 6.003 14.0885 5.45476 14.2822ZM3.14679 9.92169C2.36661 9.65503 1.72232 9.30846 1.28068 8.93027C0.883842 8.59043 0.683486 8.25303 0.683486 7.97925C0.683486 7.39664 1.55209 6.65352 3.00077 6.14843C3.17655 6.08714 3.36056 6.02938 3.55151 5.97513C3.75173 6.6264 4.01437 7.30733 4.33132 7.99588C4.01027 8.69466 3.7439 9.38644 3.54172 10.0453C3.40558 10.0062 3.27369 9.96503 3.14679 9.92169ZM3.92044 4.65549C3.61975 3.11878 3.81945 1.95953 4.32198 1.66864C4.85726 1.35875 6.0409 1.80059 7.28843 2.90831C7.36818 2.97911 7.44823 3.05322 7.52852 3.12988C7.06364 3.62905 6.60429 4.19733 6.1655 4.8166C5.41301 4.88635 4.6927 4.99838 4.03043 5.14842C3.98879 4.98093 3.95191 4.81637 3.92044 4.65549ZM10.8221 6.35969C10.6638 6.08623 10.5013 5.81923 10.3356 5.55952C10.8461 5.62406 11.3352 5.70972 11.7945 5.81456C11.6566 6.25651 11.4847 6.71859 11.2824 7.1923C11.1373 6.91675 10.9838 6.63893 10.8221 6.35969ZM8.00763 3.61837C8.3229 3.95993 8.63863 4.34127 8.94917 4.75502C8.63624 4.74024 8.31943 4.73255 8 4.73255C7.68359 4.73255 7.36912 4.74007 7.05812 4.7546C7.36897 4.34469 7.68743 3.96386 8.00763 3.61837ZM5.17512 6.36442C5.01697 6.63865 4.86631 6.91496 4.72346 7.19178C4.52441 6.71973 4.35413 6.25554 4.21504 5.80732C4.67154 5.70517 5.15834 5.62164 5.6656 5.55833C5.49757 5.82043 5.33369 6.08939 5.17512 6.36436V6.36442ZM5.68021 10.4489C5.15612 10.3905 4.662 10.3112 4.20561 10.2119C4.34693 9.75568 4.52097 9.28157 4.72423 8.79935C4.86745 9.07598 5.01871 9.3524 5.17782 9.62723H5.17785C5.33993 9.90722 5.50785 10.1815 5.68021 10.4489ZM8.02654 12.3883C7.70259 12.0388 7.37945 11.6521 7.06387 11.2363C7.37023 11.2483 7.68256 11.2544 8 11.2544C8.32612 11.2544 8.64851 11.2471 8.96583 11.233C8.65427 11.6563 8.33968 12.0436 8.02654 12.3883ZM11.2889 8.77478C11.5028 9.26221 11.6831 9.73383 11.8262 10.1823C11.3623 10.2881 10.8614 10.3733 10.3337 10.4367C10.4998 10.1735 10.6637 9.90189 10.8249 9.62253C10.9878 9.3399 11.1426 9.05684 11.2889 8.77478ZM10.2328 9.28106C9.98268 9.71472 9.7259 10.1287 9.46523 10.5195C8.99044 10.5534 8.49993 10.5709 8 10.5709C7.50209 10.5709 7.01776 10.5554 6.55138 10.5252C6.28019 10.1293 6.01784 9.71407 5.76932 9.28479H5.76938C5.52152 8.85668 5.2934 8.42496 5.08669 7.99565C5.29334 7.56535 5.52086 7.13314 5.7673 6.7058L5.76724 6.70589C6.01433 6.27741 6.27438 5.86423 6.54306 5.47081C7.0189 5.43484 7.50684 5.41607 7.99997 5.41607H8C8.49535 5.41607 8.98392 5.43498 9.45962 5.47126C9.72419 5.86181 9.98248 6.27365 10.2305 6.70219C10.4814 7.13554 10.7119 7.56487 10.9203 7.98594C10.7125 8.41425 10.4826 8.84791 10.2328 9.28106ZM11.6428 1.64831C12.1786 1.95728 12.3869 3.20339 12.0503 4.83742C12.0288 4.94168 12.0047 5.04788 11.9784 5.15551C11.3146 5.00234 10.5938 4.88837 9.83908 4.81757C9.39944 4.1915 8.94385 3.62233 8.48655 3.12957C8.6095 3.01129 8.73227 2.89851 8.85454 2.79208C10.0358 1.76411 11.1398 1.35824 11.6428 1.64831ZM8 6.5505C8.78906 6.5505 9.42875 7.19016 9.42875 7.97925C9.42875 8.76831 8.78906 9.408 8 9.408C7.21094 9.408 6.57125 8.76831 6.57125 7.97925C6.57125 7.19016 7.21094 6.5505 8 6.5505Z" fill="#00D8FF"/>
</g>
<defs>
<clipPath id="clip0_1191_359">
<rect width="16" height="16" fill="white"/>
</clipPath>
</defs>
</svg>
