<svg width="16" height="16" viewBox="0 0 16 16" fill="none" xmlns="http://www.w3.org/2000/svg">
<path fill-rule="evenodd" clip-rule="evenodd" d="M5.38279 9.73467C5.13481 9.88975 4.7612 10.141 4.47216 10.4142C3.99765 10.8623 3.89836 11.4839 4.14868 11.6291C4.38023 11.7634 4.92081 11.6036 5.3077 11.1817C5.71374 10.7386 5.88119 10.177 5.70824 9.53938C5.68793 9.55149 5.66798 9.56365 5.64841 9.57495L5.64884 9.57581L5.6226 9.59068C5.52165 9.65094 5.43915 9.70065 5.38279 9.73467ZM12.3512 9.53352C12.2107 9.83876 12.2037 9.93699 12.2463 9.96755C12.4501 9.89433 12.7873 9.71787 12.79 9.24501C12.7904 9.17419 12.7748 9.0982 12.7497 9.0188C12.5318 9.21174 12.4062 9.41374 12.3512 9.53352ZM14.5381 8.61057C13.9937 8.54711 13.5688 8.62348 13.2391 8.76085C13.3001 8.91977 13.3471 9.0853 13.3537 9.25205C13.369 9.61804 13.1171 9.88889 12.8545 10.0823C12.7012 10.195 12.5381 10.2701 12.4011 10.3155C12.2916 10.3617 12.1461 10.4094 12.0428 10.3884C11.8151 10.3421 11.6939 10.1398 11.8488 9.69361C11.9325 9.45214 12.1738 9.08455 12.5635 8.76794C12.4747 8.58514 12.3757 8.39886 12.3252 8.22774C12.2258 7.89038 12.1958 7.68646 12.1958 7.68646C12.1958 7.68646 11.8747 8.35226 11.4604 8.95774C11.4365 8.99293 11.4126 9.02744 11.3888 9.06183C11.4701 9.25093 11.5342 9.45091 11.5429 9.65254C11.5582 10.0185 11.3997 10.2952 11.1368 10.4881C10.9945 10.5931 10.8427 10.6656 10.7124 10.7117C10.6291 10.7481 10.4597 10.8079 10.2188 10.824C10.087 10.833 9.96022 10.8248 9.88945 10.7712C9.79202 10.6976 9.78029 10.6068 9.83074 10.4827C9.8734 10.3774 10.1926 10.013 10.4602 9.69403C10.5341 9.60594 10.6045 9.51592 10.6674 9.43257L10.6659 9.42899C10.6659 9.42899 10.7144 9.36644 10.793 9.25723C10.6952 9.04663 10.5712 8.8274 10.513 8.6286C10.4136 8.29125 10.3835 8.08727 10.3835 8.08727C10.3835 8.08727 10.058 8.92179 9.71886 9.58796C9.45643 10.1039 9.28114 10.4166 9.20216 10.5536L9.20137 10.5591C9.20137 10.5591 9.18958 10.5791 9.16926 10.6104L9.15406 10.6357L9.15364 10.6334C9.06559 10.7634 8.86807 11.0182 8.67171 11.0182C8.13268 11.0182 8.33058 9.9234 8.33058 9.9234C8.33058 9.9234 8.17299 10.3289 7.99536 10.6769C7.85068 10.9606 7.71886 11.201 7.43057 11.201C7.34764 11.201 7.21619 11.1986 7.10703 11.0948C6.85943 10.8596 6.67011 10.2623 6.70723 9.79967C6.73891 9.40633 6.79954 9.13388 6.88247 8.90654C6.73459 8.98712 6.56367 9.08268 6.38961 9.18486L6.12201 9.34255L6.13065 9.35823C6.35202 9.78645 6.4111 10.7246 5.92838 11.4448C5.44571 12.1654 4.54719 12.6038 3.67177 12.3604C3.38929 12.2816 2.96256 11.6973 3.33063 10.8828C3.65529 10.1645 4.95281 9.48542 5.29474 9.31594L5.3886 9.26427C4.70686 8.66774 3.00443 7.86303 2.76584 6.62695C2.69854 6.27898 2.86167 5.44686 3.88337 4.49027C4.74275 3.68593 5.93819 3.06983 7.0425 2.67723C8.89777 2.01773 10.858 2.40676 11.1596 3.58962C11.4561 4.75291 10.4469 6.14438 9.15444 6.6446C8.00048 7.09116 7.0464 7.02034 6.65444 6.89161C6.20888 6.74523 5.94758 6.45123 5.88385 6.28528C5.85879 6.22032 5.8157 6.11116 5.88385 6.07357C5.92566 6.05047 5.94246 6.05597 6.05434 6.17963C6.16078 6.29706 6.58868 6.61217 7.40156 6.52093C9.53466 6.28181 10.8196 4.62337 10.4136 3.73094C10.1292 3.10626 8.48512 2.82442 6.43105 3.84874C3.92364 5.0989 3.78754 6.12951 3.76605 6.52093C3.70734 7.59767 5.09402 8.16406 5.84434 8.96483L5.87324 8.99656C6.01365 8.91908 6.16196 8.83727 6.30743 8.75744C6.68574 8.54957 7.0425 8.3546 7.20872 8.26379C7.4728 7.87993 8.00864 7.45635 8.39553 7.45635C9.01397 7.45635 8.80157 8.34527 8.80157 8.34527C8.80157 8.34527 8.8141 8.30458 8.8309 8.30421C8.8485 8.30373 8.9166 8.1871 9.10751 8.25675C9.30386 8.32879 9.25923 8.46659 9.26045 8.48067C9.2628 8.50803 9.02848 9.29829 8.9311 9.80517C8.88449 10.0471 8.91148 10.2233 8.92523 10.2233C8.94438 10.2233 8.98352 10.1618 9.01989 10.0956L9.01909 10.0937C9.01909 10.0937 9.04645 10.0436 9.09226 9.95358L9.10127 9.93475L9.10164 9.93561C9.15566 9.82991 9.2315 9.67451 9.31911 9.48195C9.49083 9.10348 10.146 7.6423 10.2016 7.48067C10.2571 7.31903 10.286 7.1519 10.3135 7.08023C10.3404 7.00861 10.572 6.95459 10.8427 6.95656C11.1134 6.95854 11.1408 7.07399 11.1427 7.09788C11.1447 7.12172 11.014 7.44233 10.9839 7.66892C10.9542 7.89556 10.9828 8.00861 11.0074 8.19889C11.0235 8.3233 11.1013 8.4811 11.1933 8.65996C11.4733 8.20198 11.9661 7.32602 12.0135 7.0806C12.0459 6.91273 12.098 6.75184 12.1254 6.68017C12.1527 6.60855 12.384 6.55458 12.6546 6.5565C12.9253 6.55847 12.9526 6.67393 12.9546 6.69782C12.9566 6.72171 12.8255 7.04226 12.7958 7.2689C12.7661 7.49512 12.7947 7.60865 12.8193 7.79887C12.8404 7.96168 12.9664 8.18049 13.0912 8.42937C13.4318 8.26144 13.8328 8.14876 14.3023 8.14641C14.4966 8.14529 14.7224 8.16481 14.839 8.20118V4.45656C14.839 4.19238 14.7036 3.94894 14.4748 3.81706L8.36625 0.286449C8.13785 0.154517 7.85815 0.154517 7.62969 0.286449L1.53802 3.81535C1.30957 3.94729 1.1875 4.19115 1.1875 4.45491V11.5192C1.1875 11.7829 1.31031 12.0268 1.5384 12.1587L7.63988 15.6904C7.86828 15.8227 8.14526 15.8227 8.37367 15.6904L14.4779 12.1587C14.7063 12.0264 14.8394 11.7829 14.8394 11.5192V8.66422C14.7619 8.6414 14.6485 8.62343 14.5381 8.61057ZM7.96646 8.24064C7.83543 8.3874 7.61209 8.76587 7.50763 9.08263C7.29991 9.71158 7.38988 10.3508 7.53696 10.3892C7.70867 10.4341 7.99035 9.5934 8.12521 9.26459C8.20974 9.05869 8.53834 8.14481 8.46635 8.02269C8.41014 7.92718 8.17731 8.00429 7.96646 8.24064ZM10.3429 10.3605C10.3429 10.3605 10.3015 10.3997 10.3194 10.4106C10.3436 10.4252 10.3961 10.4063 10.4532 10.3766C10.6148 10.2749 10.9773 10.0212 10.9781 9.64582C10.9781 9.63489 10.9777 9.62433 10.977 9.61297C10.8929 9.72336 10.8154 9.82159 10.7485 9.90494C10.6343 10.047 10.3429 10.3605 10.3429 10.3605Z" fill="#FF0099" fill-opacity="0.68"/>
</svg>
