<svg width="656" height="656" viewBox="0 0 656 656" fill="none" xmlns="http://www.w3.org/2000/svg">
<g clip-path="url(#clip0_219_457)">
<path d="M643 13H13V643H643V13Z" stroke="black" stroke-width="25"/>
<path d="M436.2 505.19C448.89 525.91 465.4 541.14 494.6 541.14C519.13 541.14 534.8 528.88 534.8 511.94C534.8 491.64 518.7 484.45 491.7 472.64L476.9 466.29C434.18 448.09 405.8 425.29 405.8 377.09C405.8 332.69 439.63 298.89 492.5 298.89C530.14 298.89 557.2 311.99 576.7 346.29L530.6 375.89C520.45 357.69 509.5 350.52 492.5 350.52C475.16 350.52 464.17 361.52 464.17 375.89C464.17 393.65 475.17 400.84 500.57 411.84L515.37 418.18C565.67 439.75 594.07 461.74 594.07 511.18C594.07 564.48 552.2 593.68 495.97 593.68C440.99 593.68 405.47 567.48 388.09 533.14L436.2 505.19ZM227.07 510.32C236.37 526.82 244.83 540.77 265.17 540.77C284.62 540.77 296.89 533.16 296.89 503.57V302.27H356.09V504.37C356.09 565.67 320.15 593.57 267.69 593.57C220.29 593.57 192.84 569.04 178.88 539.495L227.07 510.32Z" fill="black"/>
</g>
<defs>
<clipPath id="clip0_219_457">
<rect width="656" height="656" fill="white"/>
</clipPath>
</defs>
</svg>
