<svg width="276" height="48" viewBox="0 0 276 48" fill="none" xmlns="http://www.w3.org/2000/svg">
<path d="M80.4146 31.4504L20.7073 31.4504C16.9756 31.4504 6 30.7917 6 18.4992C6 6.20675 16.317 6.20654 20.7073 6.20654" stroke="black" stroke-width="10.9756"/>
<path d="M93.0017 45.6421L116.577 40.9283L123.661 40.9283C123.661 40.9283 142.787 48.0046 180.37 48C210.614 48.0016 237.18 40.3744 247.329 37.3935L270.097 37.3919C273.358 37.3919 276 34.7547 276 31.4992C276 28.2437 273.358 25.6065 270.097 25.6065L247.327 25.6065C237.171 22.6223 210.605 14.9916 180.368 15C142.786 14.9901 123.659 22.0717 123.659 22.0717L116.575 22.0717L93 17.3562C93 40.0623 93.0074 16.9675 93.0017 45.6421Z" fill="black"/>
</svg>
