<svg width="286" height="48" viewBox="0 0 286 48" fill="none" xmlns="http://www.w3.org/2000/svg">
<path d="M80.4146 31.4504L20.7073 31.4504C16.9756 31.4504 6 30.7917 6 18.4992C6 6.20675 16.317 6.20654 20.7073 6.20654" stroke="black" stroke-width="10.9756"/>
<path d="M103.002 45.6421L126.577 40.9283L133.661 40.9283C133.661 40.9283 152.787 48.0046 190.37 48C220.614 48.0016 247.18 40.3744 257.329 37.3935L280.097 37.3919C283.358 37.3919 286 34.7547 286 31.4992C286 28.2437 283.358 25.6065 280.097 25.6065L257.327 25.6065C247.171 22.6223 220.605 14.9916 190.368 15C152.786 14.9901 133.659 22.0717 133.659 22.0717L126.575 22.0717L103 17.3562C103 40.0623 103.007 16.9675 103.002 45.6421Z" fill="black"/>
</svg>
